
Format                                   : Matroska
Format version                           : Version 2
File size                                : 1.53 GiB
Duration                                 : 1h 49mn
Overall bit rate                         : 2 000 Kbps
Encoded date                             : UTC 2012-12-02 07:15:47
Writing application                      : mkvmerge v5.6.0 ('Kenya Kane') built on May 27 2012 16:44:04
Writing library                          : libebml v1.2.3 + libmatroska v1.3.0

Video
ID                                       : 1
Format                                   : AVC
Format/Info                              : Advanced Video Codec
Format profile                           : High@L4.1
Format settings, CABAC                   : Yes
Format settings, ReFrames                : 4 frames
Codec ID                                 : V_MPEG4/ISO/AVC
Duration                                 : 1h 49mn
Bit rate                                 : 1 679 Kbps
Width                                    : 1 280 pixels
Height                                   : 536 pixels
Display aspect ratio                     : 2.40:1
Frame rate                               : 23.976 fps
Color space                              : YUV
Chroma subsampling                       : 4:2:0
Bit depth                                : 8 bits
Scan type                                : Progressive
Bits/(Pixel*Frame)                       : 0.102
Stream size                              : 1.25 GiB (82%)
Writing library                          : x264 core 125 r2200 999b753
Encoding settings                        : cabac=1 / ref=3 / deblock=1:0:0 / 

Audio
ID                                       : 2
Format                                   : AC-3
Format/Info                              : Audio Coding 3
Mode extension                           : CM (complete main)
Format settings, Endianness              : Big
Codec ID                                 : A_AC3
Duration                                 : 1h 49mn
Bit rate mode                            : Constant
Bit rate                                 : 320 Kbps
Channel(s)                               : 6 channels
Channel positions                        : Front: L C R, Side: L R, LFE
Sampling rate                            : 48.0 KHz
Bit depth                                : 16 bits
Compression mode                         : Lossy
Stream size                              : 250 MiB (16%)
Default                                  : Yes
Forced                                   : No





Thumbnails: http://i.imgur.com/aXBEl.jpg